<?xml version="1.0" encoding="UTF-8"?>
<svg xmlns="http://www.w3.org/2000/svg" xmlns:xlink="http://www.w3.org/1999/xlink" width="265px" height="265px" viewBox="0 0 265 265" version="1.1">
<g id="surface1">
<path style=" stroke:none;fill-rule:nonzero;fill:rgb(0%,0%,0%);fill-opacity:1;" d="M 132.398438 264.792969 C 183.679688 264.792969 225.40625 223.074219 225.40625 171.792969 C 225.40625 121.570312 138.238281 7.585938 134.527344 2.757812 L 132.398438 0 L 130.265625 2.777344 C 126.558594 7.59375 39.386719 121.589844 39.386719 171.800781 C 39.386719 223.074219 81.113281 264.792969 132.398438 264.792969 Z M 132.398438 8.855469 C 146.007812 26.996094 220.027344 127.617188 220.027344 171.792969 C 220.027344 220.097656 180.707031 259.410156 132.398438 259.410156 C 84.078125 259.410156 44.765625 220.097656 44.765625 171.792969 C 44.765625 127.617188 118.78125 26.996094 132.398438 8.855469 Z M 132.398438 8.855469 "/>
</g>
</svg>
